<svg width="416" height="480" viewBox="0 0 416 480" fill="none" xmlns="http://www.w3.org/2000/svg">
<rect width="416" height="480" fill="#F2F4F3"/>
<path d="M185.222 204V277V204ZM230.778 204V277V204ZM167 222.25H185.222H167ZM230.778 222.25H249H230.778ZM167 240.5H249H167ZM167 258.75H185.222H167ZM230.778 258.75H249H230.778ZM171.556 277H244.444C245.653 277 246.811 276.519 247.666 275.664C248.52 274.808 249 273.648 249 272.438V208.562C249 207.352 248.52 206.192 247.666 205.336C246.811 204.481 245.653 204 244.444 204H171.556C170.347 204 169.189 204.481 168.334 205.336C167.48 206.192 167 207.352 167 208.562V272.438C167 273.648 167.48 274.808 168.334 275.664C169.189 276.519 170.347 277 171.556 277Z" stroke="#22333B" stroke-opacity="0.1" stroke-width="7" stroke-linecap="round" stroke-linejoin="round"/>
</svg>
